<?xml version="1.0" encoding="utf-8"?>
<!-- Generator: Adobe Illustrator 16.0.3, SVG Export Plug-In . SVG Version: 6.00 Build 0)  -->
<!DOCTYPE svg PUBLIC "-//W3C//DTD SVG 1.1//EN" "http://www.w3.org/Graphics/SVG/1.1/DTD/svg11.dtd">
<svg version="1.1" xmlns="http://www.w3.org/2000/svg" xmlns:xlink="http://www.w3.org/1999/xlink" x="0px" y="0px"
	 width="841.89px" height="595.28px" viewBox="0 0 841.89 595.28" enable-background="new 0 0 841.89 595.28" xml:space="preserve">
<g id="Capa_2">
	<path fill="none" stroke="#F7963D" stroke-width="3" stroke-miterlimit="10" d="M286.75,273.443
		c-0.75-0.025,11.801-121.472,134.275-112.456c0,0,116.975-8.772,132.225,112.579C388.73,278.535,398.369,277.202,286.75,273.443z"
		/>
	<path fill="none" stroke="#F7963D" stroke-width="3" stroke-miterlimit="10" d="M298,366h245c0,0,27.5,45.5-33.25,67.5h-182.5
		C327.25,433.5,274.75,408.25,298,366z"/>
	<path fill="none" stroke="#F7963D" stroke-width="3" stroke-miterlimit="10" d="M297.277,276.742c0,0-4.527,14.538,5.723,20.898
		l236.25,0.385c0,0,9.455-1.499,5.478-21.262L297.277,276.742z"/>
	<path fill="none" stroke="#F7963D" stroke-width="3" stroke-miterlimit="10" d="M298,349.25v15.25l245,1.5v-13.75
		c0,0-0.25,7.5-29.5-14c0,0-16.5,35.5-38.5,11.75c0,0-19.5-15.25-32.5-11.75c0,0-19.75,16.5-30.75,6.5c0,0-17.25-18.25-36.75-1
		c0,0-5.75,13.75-38-4.5c0,0-5.75-4.75-19.5,4.75C317.5,344,306.5,350,298,349.25z"/>
	<path fill="none" stroke="#F7963D" stroke-width="3" stroke-miterlimit="10" d="M307.5,253.5c0,0,8.75-60.75,74.25-67.25"/>
	<path fill="none" stroke="#F7963D" stroke-width="3" stroke-miterlimit="10" d="M395.75,183.25c0,0,7-1.75,9.75,0"/>
</g>
<g id="Capa_3">
</g>
<g id="Capa_4">
	<path fill="none" stroke="#F7963D" stroke-width="3" stroke-miterlimit="10" d="M541.25,298.025c0,0,22.25,6.725,6,22.475H521.5
		c0,0-13.146,35.959-29.698,37.604c0,0-22.052-1.354-35.302-37.604l-160.219-1.25c0,0-13.531-10.449,4.969-21.225H541.25z"/>
</g>
<g id="Capa_5">
	<path fill="none" stroke="#F7963D" stroke-width="3" stroke-miterlimit="10" d="M549.209,319.5c0,0,21.791,22.5-6.209,32.75
		c0,0-14.5-1.25-29.5-14l8-17.75L549.209,319.5z"/>
	<path fill="none" stroke="#F7963D" stroke-width="3" stroke-miterlimit="10" d="M293.518,316.222c0,0-22.265,17.614,4.482,33.028
		c0,0,13.577-0.404,23.414-7.702c0,0,9.893-9.663,22.115,1.145c0,0,18.447,9.511,26.959,4.909c0,0,12.706-15.068,28.109-10.46
		c0,0,10.172,3.327,15.163,9.093c0,0,8.776,6.758,29.883-8.238c0,0,9.107-3.996,29.107,11.254c0,0-13.25-19.25-16.25-28.75
		l-160.219-1.25L293.518,316.222z"/>
	<path fill="none" stroke="#169133" stroke-miterlimit="10" d="M585.5,323.75"/>
</g>
</svg>
